<svg xmlns="http://www.w3.org/2000/svg" viewBox="0 0 32 32" width="32" height="32">
	<style>
		tspan { white-space:pre }
	</style>
	<path id="NP " fill="#ffffff" d="M12.39 7.73L16.54 7.73L13.63 24.32L9.46 24.32L6.56 15.24L4.99 24.32L0.82 24.32L3.75 7.73L8.03 7.73L10.89 16.21L12.39 7.73ZM24.67 19.27L21.93 19.27L21.03 24.32L16.88 24.32L19.81 7.73L26.83 7.73Q29.44 7.73 30.54 8.93Q31.35 9.85 31.35 11.28Q31.35 11.76 31.26 12.29L30.8 14.9Q30.45 16.81 28.77 18.05Q27.09 19.27 24.67 19.27ZM25.38 11.33L23.31 11.33L22.55 15.68L24.6 15.68Q26.49 15.68 26.79 14L26.95 13.05Q27 12.85 27 12.5Q27 12.15 26.65 11.74Q26.3 11.33 25.38 11.33Z" />
</svg>