<svg xmlns="http://www.w3.org/2000/svg" viewBox="0 0 256 64" width="256" height="64">
	<style>
		tspan { white-space:pre }
	</style>
	<path id="NodePack " fill="#ffffff" d="M42.78 17.46L51.07 17.46L45.26 50.64L36.92 50.64L31.12 32.48L27.98 50.64L19.64 50.64L25.5 17.46L34.07 17.46L39.78 34.42L42.78 17.46ZM65.68 27.83Q70.65 27.83 73.19 30Q75.17 31.7 75.17 34.74Q75.17 35.76 74.94 36.95L73.97 42.35Q73.1 47.23 69.87 49.26Q66.69 51.29 61.35 51.29Q56 51.29 53.51 49.26Q51.67 47.74 51.67 44.7Q51.67 43.64 51.9 42.35L52.87 36.95Q54.48 27.83 65.68 27.83ZM66.32 41.33L66.92 37.88Q67.01 37.42 67.01 36.72Q67.01 35.99 66.41 35.11Q65.82 34.24 64.3 34.24Q62.82 34.24 61.81 35.25Q60.79 36.22 60.52 37.88L59.92 41.33Q59.83 41.79 59.83 42.53Q59.83 43.22 60.42 44.05Q61.02 44.88 62.5 44.88Q64.02 44.88 65.03 43.87Q66.05 42.81 66.32 41.33ZM99.5 43.54Q99.5 44.74 100.7 44.74Q101.94 44.74 102.77 44.28L102.54 49.49Q100.33 51.29 97.56 51.29Q92.5 51.29 91.94 47.6Q89.64 51.29 85.17 51.29Q77.61 51.29 77.61 44.79Q77.61 43.68 77.84 42.35L78.81 36.95Q79.55 32.81 82.17 30.36Q84.85 27.88 89.55 27.88Q92.45 27.88 94.15 29.12L96.5 15.67L104.38 15.67L99.55 42.99Q99.5 43.27 99.5 43.54ZM86.46 37.88L85.86 41.33Q85.77 41.75 85.77 42.48Q85.77 43.22 86.46 43.96Q87.15 44.65 88.76 44.65Q90.42 44.65 91.62 43.36L93 35.62Q92.5 34.47 90.61 34.47Q87.06 34.47 86.46 37.88ZM115.81 51.29Q106.23 51.29 106.23 44.65Q106.23 43.73 106.41 42.67L107.38 36.95Q108.16 32.53 111.43 30.18Q114.75 27.78 120.19 27.78Q129.45 27.78 129.45 34.79Q129.45 35.8 129.27 37L128.71 40.27L114.66 40.27L114.48 41.33Q114.38 41.88 114.38 42.35Q114.38 44.88 117.38 44.88Q118.49 44.88 119.27 44.19Q120.05 43.5 120.19 42.58L127.84 42.67Q126.32 51.29 115.81 51.29ZM115.12 37.46L121.34 37.46Q121.53 36.68 121.53 36.03Q121.53 35.34 120.93 34.65Q120.33 33.96 118.99 33.96Q117.7 33.96 116.6 34.83Q115.54 35.71 115.12 37.46ZM147.38 40.55L141.89 40.55L140.1 50.64L131.8 50.64L137.65 17.46L151.71 17.46Q156.92 17.46 159.13 19.86Q160.74 21.7 160.74 24.56Q160.74 25.53 160.56 26.59L159.63 31.79Q158.94 35.62 155.58 38.11Q152.22 40.55 147.38 40.55ZM148.81 24.65L144.66 24.65L143.14 33.36L147.24 33.36Q151.02 33.36 151.62 30L151.94 28.11Q152.03 27.69 152.03 27Q152.03 26.31 151.34 25.48Q150.65 24.65 148.81 24.65ZM182.72 43.54Q182.72 44.74 183.92 44.74Q185.16 44.74 185.99 44.28L185.76 49.49Q183.55 51.29 180.79 51.29Q175.72 51.29 175.16 47.6Q172.86 51.29 168.39 51.29Q160.83 51.29 160.83 44.79Q160.83 43.68 161.06 42.35L162.03 36.95Q162.77 32.81 165.39 30.36Q168.07 27.88 172.31 27.88Q176.59 27.88 178.11 29.86L178.34 28.48L185.35 28.48L182.77 42.99Q182.72 43.27 182.72 43.54ZM169.68 37.88L169.08 41.33Q168.99 41.75 168.99 42.48Q168.99 43.22 169.68 43.96Q170.37 44.65 171.98 44.65Q173.64 44.65 174.84 43.36L176.22 35.62Q175.72 34.47 173.83 34.47Q170.28 34.47 169.68 37.88ZM198.16 51.29Q188.57 51.29 188.57 44.65Q188.57 43.73 188.76 42.67L189.72 36.95Q190.46 32.53 193.73 30.18Q197.05 27.83 202.12 27.78Q211.94 27.78 211.94 34.6Q211.94 36.08 211.57 37.28Q211.24 38.43 210.88 38.84L210.51 39.3L202.67 39.3Q203.83 38.29 203.83 36.91Q203.83 34.42 201.34 34.42Q199.86 34.42 198.8 35.3Q197.74 36.17 197.42 37.97L196.82 41.33Q196.73 41.79 196.73 42.21Q196.73 44.65 199.77 44.65Q200.78 44.65 201.57 44Q202.4 43.36 202.54 42.58L210.18 42.67Q208.66 51.29 198.16 51.29ZM236.27 44.74Q237.33 44.74 238.15 44.28L237.92 49.49Q235.76 51.29 232.63 51.29Q229.49 51.29 227.97 49.63Q226.5 47.97 225.67 44.05L225.53 43.41Q224.56 43.54 222.63 43.64L221.38 50.64L213.55 50.64L219.72 15.67L227.56 15.67L224.88 30.83Q227.6 27.83 232.26 27.83Q235.39 27.83 236.86 29.4Q238.39 30.92 238.39 33.5Q238.39 38.47 233.18 41.29L233.69 42.99Q234.19 44.74 236.27 44.74ZM228.29 34.1Q225.81 34.1 223.87 36.45L223.36 39.49Q230.18 39.21 230.18 35.85Q230.18 35.06 229.68 34.6Q229.22 34.1 228.29 34.1Z" />
</svg>